# xmcd
# 
# Track frame offsets:
#     150
#     20689
#     43466
#     61468
#     78920
#     101275
#     123777
#     148829
#     167331
# 
# Disc length: 2620
# 
# Revision: 1
# Processed by: cddbd v1.5.2PL0 Copyright (c) Steve Scherf et al.
# Submitted via: fre:ac v1.1beta1pre2
# 
DISCID=720a3a09
DTITLE=AlbertCollins Rrobert Cray Johnny Copeland - Showdown! 
DYEAR=1985
DGENRE=Blues
TTITLE0=T-Bone Shuffle
TTITLE1=The Moon Is Full\n
TTITLE2=Lion's Den
TTITLE3=She's Into Something
TTITLE4=Bring Your Fine Self Home
TTITLE5=Black Cat Bone
TTITLE6=The Dream
TTITLE7=Albert's Alley
TTITLE8=Blackjack\n
EXTD=
EXTT0=
EXTT1=
EXTT2=
EXTT3=
EXTT4=
EXTT5=
EXTT6=
EXTT7=
EXTT8=
PLAYORDER=
